Jump_normalized_Motion_pl10
version=1
nRows=12
nColumns=43
inDegrees=yes
endheader
time		pelvis_tilt		pelvis_list		pelvis_rotation		pelvis_tx		pelvis_ty		pelvis_tz		hip_flexion_r		hip_adduction_r		hip_rotation_r		knee_angle_r		ankle_angle_r		subtalar_angle_r		mtp_angle_r		hip_flexion_l		hip_adduction_l		hip_rotation_l		knee_angle_l		ankle_angle_l		subtalar_angle_l		mtp_angle_l		lumbar_extension		lumbar_bending		lumbar_rotation		neck_flexion		neck_lateral_bending		neck_rotation		arm_flex_r		arm_add_r		arm_rot_r		elbow_flex_r		pro_sup_r		wrist_flex_r		wrist_dev_r		hand_finger_flex_r		arm_flex_l		arm_add_l		arm_rot_l		elbow_flex_l		pro_sup_l		wrist_flex_l		wrist_dev_l		hand_finger_flex_l		
0.061667		2.888272		-13.123935		85.373647		0.067411		1.746800		1.763893		74.900363		-0.489124		1.748120		-149.584265		23.664146		10.990444		22.193024		72.754540		-8.638581		12.614789		-150.172277		18.815934		20.406874		32.523244		-42.911042		-0.864967		5.036177		34.240291		2.234832		-1.898913		69.520111		-25.387027		3.377248		79.558185		95.386208		2.807026		0.510416		-12.960164		78.844029		-24.196081		21.124652		50.834323		113.547664		-17.155085		-1.488812		14.565036		
0.063460		3.022836		-13.332646		85.330972		0.067289		1.747020		1.761600		74.644628		-0.390876		1.647585		-149.407526		23.676582		11.005476		22.788880		72.657557		-8.703557		12.775405		-150.056602		18.484150		20.654891		33.523561		-42.643403		-0.716078		5.150266		34.243147		2.235782		-1.793435		70.308069		-25.330190		3.728140		79.506840		95.477292		2.854003		0.688719		-13.012103		79.218793		-24.252775		21.177717		51.044813		113.468962		-17.106589		-1.072310		14.242068		
0.065253		3.222679		-13.503064		85.287800		0.067143		1.747307		1.759252		74.322413		-0.263816		1.494588		-149.207044		23.686428		11.026960		23.702892		72.526479		-8.813337		13.042350		-149.939132		18.022360		21.009179		35.071398		-42.417767		-0.499463		5.294700		34.173820		2.187322		-1.622978		71.164674		-25.290968		4.201908		79.423019		95.601090		2.914588		0.939038		-13.092704		79.551120		-24.398968		21.287095		51.369290		113.346251		-17.024101		-0.470477		13.758049		
0.067045		3.204820		-13.772730		85.183737		0.067016		1.747360		1.756944		74.176946		-0.204607		1.561962		-149.079408		23.729827		10.993666		23.749538		72.476515		-8.822568		12.957343		-149.824678		17.770070		21.033891		35.118902		-42.045834		-0.501036		5.406941		34.162449		2.159240		-1.627602		71.820631		-25.235189		4.364230		79.360866		95.652580		2.988940		0.986124		-13.065815		80.000245		-24.274999		21.308390		51.281457		113.382947		-16.959321		-0.440737		13.752912		
0.068838		3.194526		-14.005544		85.054387		0.066934		1.747482		1.754564		73.993736		-0.106761		1.641501		-148.937557		23.810177		10.981416		23.828756		72.379103		-8.873195		12.876332		-149.698850		17.421141		21.072373		35.209367		-41.708983		-0.508118		5.525444		34.045116		2.126490		-1.613352		72.505001		-25.240177		4.655660		79.297929		95.757265		3.111404		1.071536		-13.021721		80.430723		-24.202044		21.360797		51.231242		113.446700		-16.881207		-0.391955		13.742696		
0.070631		3.197215		-14.196651		84.911445		0.066843		1.747697		1.752106		73.751324		0.006568		1.725840		-148.787107		23.889987		10.996887		23.955456		72.227963		-8.945954		12.794938		-149.563417		17.027613		21.120021		35.394051		-41.416934		-0.507963		5.660068		33.893559		2.068558		-1.571291		73.201346		-25.245874		4.974388		79.224885		95.914753		3.232186		1.163489		-12.980375		80.833716		-24.159799		21.421456		51.232323		113.534708		-16.792455		-0.330660		13.714063		
0.072424		3.219065		-14.334045		84.759294		0.066705		1.748040		1.749549		73.423567		0.124240		1.811411		-148.629718		23.945713		11.050212		24.149167		72.007611		-9.033569		12.710344		-149.417420		16.612415		21.175933		35.725256		-41.185399		-0.491048		5.820439		33.745245		1.967209		-1.489853		73.901970		-25.214902		5.262661		79.133736		96.136159		3.319805		1.243531		-12.954840		81.197789		-24.142182		21.477857		51.304283		113.650436		-16.692457		-0.258243		13.654712		
0.074217		3.210170		-14.559656		84.670565		0.066551		1.748277		1.747036		73.218129		0.170056		1.863844		-148.470959		23.964862		11.033311		24.219359		71.887594		-9.027836		12.650867		-149.274275		16.361104		21.228061		35.841668		-40.868872		-0.479932		5.895268		33.785478		2.015478		-1.493672		74.540977		-25.145769		5.477743		79.051823		96.260265		3.380832		1.293561		-12.935829		81.588943		-24.054236		21.447945		51.287859		113.695579		-16.653615		-0.205779		13.621377		
0.076010		3.197624		-14.755418		84.558011		0.066402		1.748549		1.744473		72.988436		0.239750		1.934547		-148.315912		23.974494		11.001429		24.299065		71.734887		-9.043231		12.578625		-149.123184		16.015471		21.305320		35.975129		-40.575648		-0.476259		5.986658		33.740141		2.018029		-1.480061		75.205729		-25.108971		5.771188		78.954019		96.433170		3.460340		1.353913		-12.911242		81.970397		-23.985007		21.447272		51.286491		113.768306		-16.590873		-0.147849		13.583620		
0.077803		3.196546		-14.908480		84.431740		0.066255		1.748906		1.741836		72.708821		0.334324		2.003127		-148.153449		23.936839		10.939711		24.589194		71.535538		-9.082503		12.512278		-148.952758		15.537038		21.403565		36.605973		-40.323933		-0.462634		6.091831		33.625672		1.965067		-1.435701		75.887359		-25.064263		6.095898		78.836032		96.762998		3.577358		1.380848		-12.868453		82.319257		-23.940250		21.413748		51.333730		113.927401		-16.397881		-0.057577		13.386570		
0.079596		3.260602		-14.980174		84.339471		0.066088		1.749524		1.739029		72.296737		0.448161		1.986079		-147.940146		23.696803		10.776591		25.856886		71.248288		-9.142961		12.527781		-148.718032		14.792645		21.508606		39.581219		-40.173224		-0.372690		6.187274		33.529071		1.838533		-1.320906		76.543513		-24.851044		6.263420		78.680912		97.662069		3.803911		1.199103		-12.758516		82.549375		-23.932666		21.092779		51.547721		114.394170		-15.665840		0.167532		12.427545		
0.081389		3.255039		-15.165048		84.229645		0.065922		1.749860		1.736328		72.062303		0.527567		2.037265		-147.778008		23.602074		10.704197		26.144205		71.084733		-9.152008		12.464264		-148.536474		14.402829		21.600643		40.249342		-39.887754		-0.363019		6.292402		33.488807		1.851669		-1.305643		77.161609		-24.765013		6.482379		78.574834		97.927384		3.880601		1.228106		-12.732635		82.869581		-23.854301		21.032287		51.611432		114.527583		-15.498527		0.248510		12.183062		
